name C:\Users\u0101727\Documents\MyRepositories\paper-ad\trackingsimulations_3d\Results\TrackSim\IK_c11.mot
datacolumns 32
datarows 14
range 3.85000000 4.05800000
endheader
time	pelvis_tilt	pelvis_list	pelvis_rotation	pelvis_tx	pelvis_ty	pelvis_tz	hip_flexion_l	hip_adduction_l	hip_rotation_l	hip_flexion_r	hip_adduction_r	hip_rotation_r	knee_angle_l	knee_angle_r	ankle_angle_l	ankle_angle_r	subtalar_angle_l	subtalar_angle_r	lumbar_extension	lumbar_bending	lumbar_rotation	arm_flex_l	arm_add_l	arm_rot_l	arm_flex_r	arm_add_r	arm_rot_r	elbow_flex_l	elbow_flex_r	pro_sup_l	pro_sup_r	
          3.85000000	          0.29811866	         -3.02176846	          7.11035057	          0.02633138	          0.92243029	         -0.22399364	        -11.50071005	         -4.77822445	          1.37951496	         26.52337297	          4.44708802	         -7.54770637	        -36.08169229	        -22.75670045	         -4.15624477	         -5.99317397	         13.33915838	        -10.99349628	         -3.96229725	          5.52616935	         -8.62530312	         -1.76278590	        -14.53204650	         19.20607964	         -9.28542416	        -15.61618010	         14.50089107	         22.96962723	         11.49071212	         86.51662706	         86.51662706	
          3.86600000	          0.45681131	         -4.05227045	          6.94022520	          0.05003530	          0.92319348	         -0.22273154	         -9.53057271	         -6.01309439	          1.23432138	         25.60960903	          5.87993709	         -7.47545793	        -40.34456157	        -24.04237217	        -10.31563071	         -4.01351817	         11.97720714	        -11.15609527	         -3.76908797	          6.84937790	         -8.18819807	         -2.26049151	        -14.03238720	         19.48240959	         -9.05938678	        -15.91019871	         14.48186697	         21.88402161	         11.80966475	         86.51662706	         86.51662706	
          3.88200000	          0.64941699	         -4.89878551	          6.85989742	          0.07287568	          0.92452110	         -0.22172586	         -7.20406211	         -6.86219835	          1.79900290	         24.32537626	          7.06620699	         -7.50704217	        -44.67475079	        -24.73067316	        -15.53883807	         -2.01071366	         10.73873781	        -10.96102605	         -3.75585480	          7.95732249	         -7.76895075	         -2.62336938	        -13.59636017	         19.90453109	         -8.72882810	        -16.20476869	         14.34750970	         20.84022616	         12.33069155	         86.51662706	         86.51662706	
          3.89800000	          0.86045390	         -5.59167275	          6.87846933	          0.09477790	          0.92637214	         -0.22094168	         -4.55343967	         -7.37279185	          2.79036319	         22.76544490	          8.05159009	         -7.59821859	        -49.13941413	        -24.89585982	        -18.16436074	         -0.18869828	          9.70852462	        -10.58857269	         -3.90331993	          8.87845155	         -7.35738000	         -2.83743906	        -13.24123794	         20.47347259	         -8.31040643	        -16.50233116	         14.11790853	         19.88662589	         13.08068580	         86.51662706	         86.51662706	
          3.91400000	          1.08633228	         -6.11352112	          7.01573423	          0.11584195	          0.92878278	         -0.22037404	         -1.69517503	         -7.54935768	          4.01518321	         20.98655767	          8.82481234	         -7.73086409	        -53.38593729	        -24.62385632	        -19.14711370	          1.37489765	          8.07725237	        -10.11625788	         -4.18319230	          9.58867026	         -6.97635823	         -2.92650589	        -12.98579817	         21.15364155	         -7.84468838	        -16.79900749	         13.81822100	         19.06402719	         14.08912415	         86.51662706	         86.51662706	
          3.93000000	          1.30389828	         -6.40648866	          7.26807048	          0.13622028	          0.93174514	         -0.21999792	          1.34006178	         -7.34502689	          5.40230780	         19.05732933	          9.32995568	         -7.89062161	        -57.32693453	        -24.02471673	        -18.53681678	          2.70145099	          6.42547165	         -9.55117565	         -4.54134816	         10.01385829	         -6.64572492	         -2.93374683	        -12.84590988	         21.87254675	         -7.37064498	        -17.08256412	         13.47504687	         18.39526117	         15.36353415	         86.51662706	         86.51662706	
          3.94600000	          1.48218839	         -6.44928128	          7.58325775	          0.15611443	          0.93514786	         -0.21972576	          4.48695139	         -6.76478398	          6.79613373	         17.04700860	          9.55738207	         -8.05659535	        -60.78406895	        -23.19787423	        -16.79547751	          3.82230845	          5.05893591	         -8.89506146	         -4.91001898	         10.12009995	         -6.34596886	         -2.91870952	        -12.82243667	         22.53672060	         -6.91921437	        -17.34847482	         13.10936620	         17.89964788	         16.87729503	         86.51662706	         86.51662706	
          3.96200000	          1.59379470	         -6.25104806	          7.88245877	          0.17571249	          0.93881679	         -0.21944762	          7.66539157	         -5.85761181	          8.01302859	         15.01799175	          9.53087075	         -8.19630497	        -63.56496198	        -22.23052176	        -14.45360570	          4.76342437	          3.91405744	         -8.16618318	         -5.23258378	          9.91057981	         -6.02767044	         -2.93961258	        -12.90217094	         23.04568468	         -6.50602617	        -17.59896758	         12.73750926	         17.59441330	         18.57667329	         86.51662706	         86.51662706	
          3.97800000	          1.61823817	         -5.84665575	          8.05751441	          0.19514830	          0.94253915	         -0.21901541	         10.79724164	         -4.71373489	          8.88629462	         13.03708623	          9.30834988	         -8.22600871	        -65.54738726	        -21.21269783	        -11.76986614	          5.52848157	          2.98024113	         -7.44250510	         -5.47827244	          9.41773686	         -5.60055151	         -3.04164891	        -13.06280993	         23.30767735	         -6.13393574	        -17.84318163	         12.37284674	         17.49634148	         20.39932203	         86.51662706	         86.51662706	
          3.99400000	          1.55128444	         -5.27854320	          8.03800388	          0.21447910	          0.94610142	         -0.21834538	         13.81427196	         -3.43642851	          9.33226376	         11.16091489	          8.93333686	         -8.10084510	        -66.62974963	        -20.23563656	         -9.09197775	          6.15369466	          2.25687733	         -6.75773023	         -5.64460240	          8.69014809	         -5.00935442	         -3.24471358	        -13.27801298	         23.26512002	         -5.78648568	        -18.09402448	         12.02399655	         17.60400356	         22.28908142	         86.51662706	         86.51662706	
          4.01000000	          1.41193744	         -4.61907391	          7.80597375	          0.23372953	          0.94932711	         -0.21743365	         16.65196637	         -2.16022359	          9.33943191	          9.40959385	          8.46583106	         -7.82180197	        -66.75331472	        -19.34869688	         -6.58583423	          6.67446997	          1.52157424	         -6.10726372	         -5.74987868	          7.82049590	         -4.24908822	         -3.54487075	        -13.51457552	         22.91157533	         -5.43300018	        -18.37028653	         11.69399492	         17.89072796	         24.19472606	         86.51662706	         86.51662706	
          4.02600000	          1.24135020	         -3.96746302	          7.37751127	          0.25291865	          0.95208725	         -0.21630540	         19.25243959	         -1.03469067	          8.97311437	          7.75386190	          8.00272026	         -7.40933694	        -65.92934353	        -18.53897661	         -4.27781647	          7.09396005	          0.72874056	         -5.51174523	         -5.83079979	          6.93575156	         -3.34132424	         -3.91944557	        -13.73651905	         22.28639549	         -5.04134308	        -18.69217443	         11.38469530	         18.30676891	         26.07089315	         86.51662706	         86.51662706	
          4.04200000	          1.08453220	         -3.39568714	          6.81042717	          0.27204016	          0.95427970	         -0.21503908	         21.56774324	         -0.14794708	          8.36031240	          6.15782185	          7.60293794	         -6.93351962	        -64.18218489	        -17.80702569	         -2.28776933	          7.45332599	         -0.23644180	         -4.93422596	         -5.92992916	          6.13293546	         -2.34895053	         -4.33018055	        -13.91584171	         21.46547652	         -4.58113672	        -19.07145298	         11.10162562	         18.78147908	         27.88420338	         86.51662706	         86.51662706	
          4.05800000	          0.98140693	         -2.93327040	          6.16264721	          0.29110210	          0.95583091	         -0.21371619	         23.54199798	          0.47886360	          7.61456339	          4.58476771	          7.28171356	         -6.46245562	        -61.55701610	        -17.16997879	         -0.42700563	          7.82327608	         -1.42695790	         -4.30423287	         -6.08874361	          5.45787195	         -1.33571009	         -4.73752749	        -14.03582982	         20.54541847	         -4.03202838	        -19.50988374	         10.85754510	         19.23827160	         29.61024892	         86.51662706	         86.51662706	
